<svg xmlns="http://www.w3.org/2000/svg" viewBox="0 0 32 32">
  <rect width="32" height="32" rx="7" fill="#0a2540"/>
  <g transform="translate(2 2) scale(0.5)">
    <path d="M27 2c2.6 6.1 8.2 9 7.4 16.4-.3 2.8 1.8 3.4 2.7 1 .6-1.6 1.9-2.8 2.7-1.5 3.4 5.7 1.8 15.7-5.8 19.2-8.6 4-19.7-1.4-19.6-11 .1-5.3 4.1-7.3 4.4-12.5 2.9 2.4 5 1.1 4.5-3-.6-4.6.4-6.9 1.7-8.6z" fill="#e63322"/>
    <path d="M26 31.5c4.6 5.6 8 9.1 8 13.6a8 8 0 0 1-16 0c0-4.5 3.4-8 8-13.6z" fill="#2f8ae0"/>
    <path d="M22.4 41.2c.5-1.6 1.7-3 3.1-3.8" fill="none" stroke="#ffffff" stroke-opacity="0.55" stroke-width="1.8" stroke-linecap="round"/>
  </g>
</svg>
